<svg xmlns="http://www.w3.org/2000/svg" width="100%" height="100%" viewBox="0 0 800 600">
<defs>
<linearGradient id="fade" x1="1" y1="0" x2="0.3" y2="0.6">
<stop offset="0%" stop-color="white" stop-opacity="1"/>
<stop offset="100%" stop-color="white" stop-opacity="0"/>
</linearGradient>
<mask id="fadeMask">
<rect width="100%" height="100%" fill="url(#fade)" />
</mask>
</defs>
<g opacity="0.25" mask="url(#fadeMask)">
<g transform="translate(740, 60) rotate(-15) scale(1.5)">
<path d="M3.45593,11.5066 L11.6284,20.5871 C11.827,20.8077 12.173,20.8077 12.3716,20.5871 L20.5441,11.5066 C20.8191,11.201 20.8791,10.7582 20.6952,10.3904 L18.2764,5.55279 C18.107,5.214 17.7607,5 17.382,5 L6.61803,5 C6.23926,5 5.893,5.214 5.72361,5.55279 L3.3048,10.3904 C3.12092,10.7582 3.18088,11.201 3.45593,11.5066 Z" stroke="#a0a0a0" stroke-width="2" stroke-linecap="round" fill="none"/>
<path d="M8.5,8.5 L7.6382,10.2236 C7.5535,10.393 7.57178,10.5957 7.68541,10.7472 L9,12.5" stroke="#a0a0a0" stroke-width="2" stroke-linecap="round" fill="none"/>
</g>
<g transform="translate(670, 100) rotate(10) scale(1)">
<path d="M3.45593,11.5066 L11.6284,20.5871 C11.827,20.8077 12.173,20.8077 12.3716,20.5871 L20.5441,11.5066 C20.8191,11.201 20.8791,10.7582 20.6952,10.3904 L18.2764,5.55279 C18.107,5.214 17.7607,5 17.382,5 L6.61803,5 C6.23926,5 5.893,5.214 5.72361,5.55279 L3.3048,10.3904 C3.12092,10.7582 3.18088,11.201 3.45593,11.5066 Z" stroke="#a0a0a0" stroke-width="2" stroke-linecap="round" fill="none"/>
<path d="M8.5,8.5 L7.6382,10.2236 C7.5535,10.393 7.57178,10.5957 7.68541,10.7472 L9,12.5" stroke="#a0a0a0" stroke-width="2" stroke-linecap="round" fill="none"/>
</g>
<g transform="translate(600, 80) rotate(-20) scale(1.25)">
<path d="M3.45593,11.5066 L11.6284,20.5871 C11.827,20.8077 12.173,20.8077 12.3716,20.5871 L20.5441,11.5066 C20.8191,11.201 20.8791,10.7582 20.6952,10.3904 L18.2764,5.55279 C18.107,5.214 17.7607,5 17.382,5 L6.61803,5 C6.23926,5 5.893,5.214 5.72361,5.55279 L3.3048,10.3904 C3.12092,10.7582 3.18088,11.201 3.45593,11.5066 Z" stroke="#a0a0a0" stroke-width="2" stroke-linecap="round" fill="none"/>
<path d="M8.5,8.5 L7.6382,10.2236 C7.5535,10.393 7.57178,10.5957 7.68541,10.7472 L9,12.5" stroke="#a0a0a0" stroke-width="2" stroke-linecap="round" fill="none"/>
</g>
<g transform="translate(760, 160) rotate(18) scale(1.125)">
<path d="M3.45593,11.5066 L11.6284,20.5871 C11.827,20.8077 12.173,20.8077 12.3716,20.5871 L20.5441,11.5066 C20.8191,11.201 20.8791,10.7582 20.6952,10.3904 L18.2764,5.55279 C18.107,5.214 17.7607,5 17.382,5 L6.61803,5 C6.23926,5 5.893,5.214 5.72361,5.55279 L3.3048,10.3904 C3.12092,10.7582 3.18088,11.201 3.45593,11.5066 Z" stroke="#a0a0a0" stroke-width="2" stroke-linecap="round" fill="none"/>
<path d="M8.5,8.5 L7.6382,10.2236 C7.5535,10.393 7.57178,10.5957 7.68541,10.7472 L9,12.5" stroke="#a0a0a0" stroke-width="2" stroke-linecap="round" fill="none"/>
</g>
<g transform="translate(690, 190) rotate(-25) scale(1.625)">
<path d="M3.45593,11.5066 L11.6284,20.5871 C11.827,20.8077 12.173,20.8077 12.3716,20.5871 L20.5441,11.5066 C20.8191,11.201 20.8791,10.7582 20.6952,10.3904 L18.2764,5.55279 C18.107,5.214 17.7607,5 17.382,5 L6.61803,5 C6.23926,5 5.893,5.214 5.72361,5.55279 L3.3048,10.3904 C3.12092,10.7582 3.18088,11.201 3.45593,11.5066 Z" stroke="#a0a0a0" stroke-width="2" stroke-linecap="round" fill="none"/>
<path d="M8.5,8.5 L7.6382,10.2236 C7.5535,10.393 7.57178,10.5957 7.68541,10.7472 L9,12.5" stroke="#a0a0a0" stroke-width="2" stroke-linecap="round" fill="none"/>
</g>
<g transform="translate(610, 160) rotate(12) scale(0.875)">
<path d="M3.45593,11.5066 L11.6284,20.5871 C11.827,20.8077 12.173,20.8077 12.3716,20.5871 L20.5441,11.5066 C20.8191,11.201 20.8791,10.7582 20.6952,10.3904 L18.2764,5.55279 C18.107,5.214 17.7607,5 17.382,5 L6.61803,5 C6.23926,5 5.893,5.214 5.72361,5.55279 L3.3048,10.3904 C3.12092,10.7582 3.18088,11.201 3.45593,11.5066 Z" stroke="#a0a0a0" stroke-width="2" stroke-linecap="round" fill="none"/>
<path d="M8.5,8.5 L7.6382,10.2236 C7.5535,10.393 7.57178,10.5957 7.68541,10.7472 L9,12.5" stroke="#a0a0a0" stroke-width="2" stroke-linecap="round" fill="none"/>
</g>
<g transform="translate(550, 180) rotate(-10) scale(1.25)">
<path d="M3.45593,11.5066 L11.6284,20.5871 C11.827,20.8077 12.173,20.8077 12.3716,20.5871 L20.5441,11.5066 C20.8191,11.201 20.8791,10.7582 20.6952,10.3904 L18.2764,5.55279 C18.107,5.214 17.7607,5 17.382,5 L6.61803,5 C6.23926,5 5.893,5.214 5.72361,5.55279 L3.3048,10.3904 C3.12092,10.7582 3.18088,11.201 3.45593,11.5066 Z" stroke="#a0a0a0" stroke-width="2" stroke-linecap="round" fill="none"/>
<path d="M8.5,8.5 L7.6382,10.2236 C7.5535,10.393 7.57178,10.5957 7.68541,10.7472 L9,12.5" stroke="#a0a0a0" stroke-width="2" stroke-linecap="round" fill="none"/>
</g>
<g transform="translate(750, 280) rotate(-8) scale(1.375)">
<path d="M3.45593,11.5066 L11.6284,20.5871 C11.827,20.8077 12.173,20.8077 12.3716,20.5871 L20.5441,11.5066 C20.8191,11.201 20.8791,10.7582 20.6952,10.3904 L18.2764,5.55279 C18.107,5.214 17.7607,5 17.382,5 L6.61803,5 C6.23926,5 5.893,5.214 5.72361,5.55279 L3.3048,10.3904 C3.12092,10.7582 3.18088,11.201 3.45593,11.5066 Z" stroke="#a0a0a0" stroke-width="2" stroke-linecap="round" fill="none"/>
<path d="M8.5,8.5 L7.6382,10.2236 C7.5535,10.393 7.57178,10.5957 7.68541,10.7472 L9,12.5" stroke="#a0a0a0" stroke-width="2" stroke-linecap="round" fill="none"/>
</g>
<g transform="translate(680, 260) rotate(22) scale(1)">
<path d="M3.45593,11.5066 L11.6284,20.5871 C11.827,20.8077 12.173,20.8077 12.3716,20.5871 L20.5441,11.5066 C20.8191,11.201 20.8791,10.7582 20.6952,10.3904 L18.2764,5.55279 C18.107,5.214 17.7607,5 17.382,5 L6.61803,5 C6.23926,5 5.893,5.214 5.72361,5.55279 L3.3048,10.3904 C3.12092,10.7582 3.18088,11.201 3.45593,11.5066 Z" stroke="#a0a0a0" stroke-width="2" stroke-linecap="round" fill="none"/>
<path d="M8.5,8.5 L7.6382,10.2236 C7.5535,10.393 7.57178,10.5957 7.68541,10.7472 L9,12.5" stroke="#a0a0a0" stroke-width="2" stroke-linecap="round" fill="none"/>
</g>
<g transform="translate(600, 250) rotate(-15) scale(1.5)">
<path d="M3.45593,11.5066 L11.6284,20.5871 C11.827,20.8077 12.173,20.8077 12.3716,20.5871 L20.5441,11.5066 C20.8191,11.201 20.8791,10.7582 20.6952,10.3904 L18.2764,5.55279 C18.107,5.214 17.7607,5 17.382,5 L6.61803,5 C6.23926,5 5.893,5.214 5.72361,5.55279 L3.3048,10.3904 C3.12092,10.7582 3.18088,11.201 3.45593,11.5066 Z" stroke="#a0a0a0" stroke-width="2" stroke-linecap="round" fill="none"/>
<path d="M8.5,8.5 L7.6382,10.2236 C7.5535,10.393 7.57178,10.5957 7.68541,10.7472 L9,12.5" stroke="#a0a0a0" stroke-width="2" stroke-linecap="round" fill="none"/>
</g>
<g transform="translate(540, 280) rotate(15) scale(1.125)">
<path d="M3.45593,11.5066 L11.6284,20.5871 C11.827,20.8077 12.173,20.8077 12.3716,20.5871 L20.5441,11.5066 C20.8191,11.201 20.8791,10.7582 20.6952,10.3904 L18.2764,5.55279 C18.107,5.214 17.7607,5 17.382,5 L6.61803,5 C6.23926,5 5.893,5.214 5.72361,5.55279 L3.3048,10.3904 C3.12092,10.7582 3.18088,11.201 3.45593,11.5066 Z" stroke="#a0a0a0" stroke-width="2" stroke-linecap="round" fill="none"/>
<path d="M8.5,8.5 L7.6382,10.2236 C7.5535,10.393 7.57178,10.5957 7.68541,10.7472 L9,12.5" stroke="#a0a0a0" stroke-width="2" stroke-linecap="round" fill="none"/>
</g>
</g>
</svg>
