<svg xmlns="http://www.w3.org/2000/svg" width="100%" height="100%" viewBox="0 0 800 600">
  <defs>
    <linearGradient id="fade" x1="1" y1="0" x2="0.3" y2="0.6">
      <stop offset="0%" stop-color="white" stop-opacity="1"/>
      <stop offset="100%" stop-color="white" stop-opacity="0"/>
    </linearGradient>
    <mask id="fadeMask">
      <rect width="100%" height="100%" fill="url(#fade)" />
    </mask>
  </defs>

  <g fill="#a0a0a0" opacity="0.25" dominant-baseline="central" font-family="sans-serif" mask="url(#fadeMask)">
    <text x="740" y="60" font-size="60" transform="rotate(-15 740,60)">~</text>
    <text x="670" y="100" font-size="40" transform="rotate(10 670,100)">~</text>
    <text x="600" y="80" font-size="50" transform="rotate(-20 600,80)">~</text>
    <text x="760" y="160" font-size="45" transform="rotate(18 760,160)">~</text>
    <text x="690" y="190" font-size="65" transform="rotate(-25 690,190)">~</text>
    <text x="610" y="160" font-size="35" transform="rotate(12 610,160)">~</text>
    <text x="550" y="180" font-size="50" transform="rotate(-10 550,180)">~</text>
    <text x="750" y="280" font-size="55" transform="rotate(-8 750,280)">~</text>
    <text x="680" y="260" font-size="40" transform="rotate(22 680,260)">~</text>
    <text x="600" y="250" font-size="60" transform="rotate(-15 600,250)">~</text>
    <text x="540" y="280" font-size="45" transform="rotate(15 540,280)">~</text>
    <text x="730" y="360" font-size="70" transform="rotate(-20 730,360)">~</text>
    <text x="660" y="340" font-size="45" transform="rotate(10 660,340)">~</text>
    <text x="580" y="330" font-size="55" transform="rotate(-12 580,330)">~</text>
    <text x="520" y="360" font-size="40" transform="rotate(25 520,360)">~</text>
    <text x="710" y="440" font-size="60" transform="rotate(-10 710,440)">~</text>
    <text x="640" y="420" font-size="45" transform="rotate(15 640,420)">~</text>
    <text x="560" y="410" font-size="70" transform="rotate(-18 560,410)">~</text>
    <text x="500" y="440" font-size="50" transform="rotate(12 500,440)">~</text>
    <text x="690" y="520" font-size="55" transform="rotate(8 690,520)">~</text>
    <text x="620" y="500" font-size="45" transform="rotate(-15 620,500)">~</text>
    <text x="540" y="490" font-size="60" transform="rotate(20 540,490)">~</text>
    <text x="480" y="520" font-size="40" transform="rotate(-12 480,520)">~</text>
    <text x="400" y="100" font-size="45" transform="rotate(18 400,100)">~</text>
    <text x="350" y="160" font-size="55" transform="rotate(-15 350,160)">~</text>
    <text x="300" y="220" font-size="35" transform="rotate(25 300,220)">~</text>
    <text x="450" y="260" font-size="65" transform="rotate(-10 450,260)">~</text>
    <text x="380" y="320" font-size="50" transform="rotate(15 380,320)">~</text>
    <text x="420" y="400" font-size="40" transform="rotate(-20 420,400)">~</text>
    <text x="350" y="470" font-size="70" transform="rotate(10 350,470)">~</text>
    <text x="280" y="540" font-size="55" transform="rotate(-8 280,540)">~</text>
  </g>
</svg>
